<svg class="icon-filter" viewBox="0 0 928.21 752.66"><path d="M808.48,86.42c.37-.64,3.34,1.78-146.47-84.71a12.7,12.7,0,0,0-9.2-1.39L539.51,26.21C536.61,26.87,574.19,5.54,7,333-4.2,339.46.42,356.72,13.4,356.72c2,0-.56.46,41.62-9.18V586.06a12.71,12.71,0,0,0,6.36,11c282.4,163,265.81,154.4,270.83,154.4,5.3,0-31,19.85,535.3-307.09a12.71,12.71,0,0,0,6.36-11V292.77l48-27.7a12.72,12.72,0,0,0,3.95-18.47C803.45,77.36,812.28,88.61,808.48,86.42ZM92.94,312.77,547,50.6l95.88-21.91v2.25L267.66,247.59,122.89,305.92ZM260.52,277.9V380.67L155.69,320.14Zm-180,63.82,44.2-10.1,139.86,80.75,55,76V716.72l-239-138ZM344.93,523.59l31.31,43.3a12.7,12.7,0,0,0,10.32,5.27c5.29,0-25.43,16.64,461.86-264.7V426L344.93,716.72Zm45.2,19.08L286,398.59V266.41l370.67-214L794,107.76l102.9,142.32Z"/></svg>