<svg class="icon-filter" viewBox="0 0 963.41 752.66"><path d="M3.83,337.34c2.52,3.64-.19,1.49,53.86,32.7V580.78a13.19,13.19,0,0,0,6.59,11.42L338.36,750.44a13.17,13.17,0,0,0,13.19,0L899.71,434a13.18,13.18,0,0,0,6.6-11.42V276.82L956,248.12a13.19,13.19,0,0,0,1.8-21.59C669.56-11.41,686.28.89,680,.51,677.81.38,558.48.24,562.72.24,557.23.24,594.83-20.34,8,318.49A13.09,13.09,0,0,0,3.83,337.34Zm80.23,47.92,247.71,143v187.9l-247.71-143ZM285.21,253l92.28,271.21-331-191.11ZM358.14,543.5c38.69,22.34,38.57,22.86,43.13,22.86,5.25,0-25.4,16.71,478.66-274.31V414.92L358.14,716.18Zm50.45-9.77-99.15-291.4L677.85,29.63,926.39,234.77Zm221.53-507L288,224.25,135,275.58l431.2-249Z"/></svg>