<svg class="icon-filter" viewBox="0 0 859.65 643.88">
    <path d="M853.52,300.91C369,21.18,400.88,39.08,397.69,38.62L131,.12c-11.8-1.64-17.15,14.14-6.94,20l58.05,33.52V117.9L3.42,284.68a10.81,10.81,0,0,0,2,17.25l40,23.07V449.15a10.8,10.8,0,0,0,5.4,9.35L369.13,642.31a10.8,10.8,0,0,0,10.79,0l410.15-236.8a10.8,10.8,0,0,0,5.4-9.35V313.57L846.58,321C858.33,322.61,863.75,306.82,853.52,300.91ZM67,337.47,363.73,508.81V614.26L67,442.92ZM194.39,135.94,542.22,336.76,376.65,491.33,28.82,290.51ZM549.45,265.78V316L203.67,116.35V66.14ZM385.32,614.25c0-107-.32-101.17.22-101.68l182.08-170a10.79,10.79,0,0,0,3.35-7.9H571V278.25c4.57,2.64,6.11,3.81,8.81,4.19l194,28v79.47ZM585,261.37,183.4,29.51,392.54,59.7l401.6,231.86Z"/>
</svg>