<svg class="icon-filter" viewBox="0 0 601.93 643.88"><path d="M194.4,642.1a10,10,0,0,1-5-1.35L7.3,535.38a10,10,0,0,1-5-8.65V366.63A10,10,0,0,1,4,361.15L95.7,221.26a10,10,0,0,1,17.39,1.17l17.66,37,.17.36L205,432a9.94,9.94,0,0,1,.81,4L204.4,632.17a10,10,0,0,1-10,9.93ZM22.31,521l162.22,93.87L185.8,438l-73.18-170.1-9.93-20.79L22.31,369.62Z"/><path d="M195.82,472.08a10,10,0,0,1-5-18.69L535.31,256.8,465.58,115.49,139.45,275.62a10,10,0,0,1-8.81-18L465.72,93.14a10,10,0,0,1,13.37,4.55l78.33,158.7a10,10,0,0,1-4,13.11L200.77,470.76A9.88,9.88,0,0,1,195.82,472.08Z"/><path d="M196.41,640.1a8,8,0,0,1-4-15L559.5,416.06l1.36-181.56L476.39,52.16,385.72,152a8,8,0,0,1-11.85-10.76L472.66,32.47a8,8,0,0,1,13.18,2l90.3,194.91a8.07,8.07,0,0,1,.74,3.42l-1.41,188a8,8,0,0,1-4,6.89L200.36,639.05A8,8,0,0,1,196.41,640.1Z"/><path d="M548.46,270.82a10,10,0,0,1-4.7-18.84l18.3-9.69A10,10,0,1,1,571.42,260l-18.29,9.69A9.83,9.83,0,0,1,548.46,270.82Z"/><path d="M470.13,106.12H470a4,4,0,0,1-3.88-4.11l1.45-51.6a4,4,0,0,1,8,.22l-1.45,51.6A4,4,0,0,1,470.13,106.12Z"/></svg>