<?xml version="1.0" encoding="UTF-8"?><svg id="uuid-6cf685a3-059e-40ce-8ed0-1fa6ab75a98f" xmlns="http://www.w3.org/2000/svg" viewBox="0 0 476.31 101.63"><defs><style>.uuid-bcb61566-5ebf-42a7-b3a9-bed883987242{fill:#fff;}.uuid-9149e90c-9512-416a-88de-a610638a0fc9{fill:#95c11f;}</style></defs><path class="uuid-9149e90c-9512-416a-88de-a610638a0fc9" d="M71.82,85.92H35.99c-11.03,0-17.22-4.33-18.95-13.2h54.78v-7.83c0-24.32-12.05-36.66-35.84-36.66S0,40.58,0,64.93s12.1,36.56,35.99,36.56h35.84v-15.57ZM35.99,43.81c10.92,0,17.08,4.37,18.8,13.35H17.04c1.71-8.98,7.92-13.35,18.95-13.35Z"/><path class="uuid-9149e90c-9512-416a-88de-a610638a0fc9" d="M116.67,43.81c7.52,0,12.79,1.93,15.72,5.75,2.43,3.09,3.65,8.23,3.65,15.31v36.63h16.48v-36.56c0-24.36-12.06-36.7-35.85-36.7s-35.99,12.35-35.99,36.7v36.56h16.48v-36.63c0-7.07,1.23-12.22,3.66-15.31,3.01-3.81,8.35-5.75,15.86-5.75Z"/><path class="uuid-9149e90c-9512-416a-88de-a610638a0fc9" d="M196.52,101.49h35.84v-15.58h-35.84c-11.01,0-17.23-4.32-18.93-13.19h54.77v-7.83c0-24.32-12.05-36.66-35.84-36.66s-36,12.35-36,36.7,12.11,36.56,36,36.56Zm0-57.69c10.93,0,17.09,4.37,18.79,13.35h-37.73c1.71-8.98,7.92-13.35,18.94-13.35Z"/><path class="uuid-9149e90c-9512-416a-88de-a610638a0fc9" d="M242.52,55.09v46.41h16.47V55c0-3.53,1.14-6.05,3.47-7.7,3.32-2.32,9.54-3.49,18.47-3.49h.86v-15.58h-.86c-25.48,0-38.41,9.04-38.41,26.86Z"/><path class="uuid-bcb61566-5ebf-42a7-b3a9-bed883987242" d="M318.98,28.23c-20.68,0-31.18,7.49-31.18,22.24,0,8.85,3.79,15.07,11.25,18.53,4.16,1.92,10.69,3.17,19.45,3.71,6.83,.45,11.25,1.15,13.09,2.08,1.41,.75,2.11,2.26,2.11,4.58,0,1.94-.55,3.28-1.69,4.13-2.08,1.69-6.47,2.54-13.03,2.54s-10.94-.87-13.05-2.57c-1.12-.85-1.65-2.21-1.65-4.16v-.83h-16.48v.83c0,14.8,10.5,22.3,31.18,22.3s31.18-7.49,31.18-22.25c0-8.73-3.75-14.97-11.13-18.52-4.23-1.92-10.77-3.18-19.43-3.71-6.93-.46-11.31-1.11-13.04-1.96-1.55-.76-2.28-2.31-2.28-4.72,0-1.93,.53-3.28,1.66-4.13,2.09-1.68,6.48-2.54,13.03-2.54s10.95,.85,13.06,2.52c1.11,.83,1.66,2.17,1.66,4.08v.83h16.47v-.83c0-14.72-10.5-22.18-31.18-22.18Z"/><path class="uuid-bcb61566-5ebf-42a7-b3a9-bed883987242" d="M392.34,28.23c-23.89,0-35.99,12.35-35.99,36.7s12.1,36.56,35.99,36.56,35.85-12.3,35.85-36.56-12.07-36.7-35.85-36.7Zm15.73,52.05c-2.93,3.74-8.21,5.62-15.73,5.62s-12.8-1.88-15.74-5.62c-2.42-3.09-3.64-8.26-3.64-15.35s1.22-12.26,3.67-15.37c2.92-3.82,8.21-5.76,15.71-5.76s12.8,1.94,15.73,5.76c2.41,3.1,3.65,8.27,3.65,15.37s-1.24,12.27-3.65,15.35Z"/><path class="uuid-bcb61566-5ebf-42a7-b3a9-bed883987242" d="M475.44,101.49h.87v-15.58h-.87c-8.93,0-15.13-1.18-18.48-3.49-2.41-1.66-3.59-4.13-3.59-7.58V0h-16.48V74.73c0,17.76,12.98,26.77,38.55,26.77Z"/></svg>