<?xml version="1.0" encoding="UTF-8"?><svg id="uuid-522388c0-c1d4-4025-8252-4d516f8a96af" xmlns="http://www.w3.org/2000/svg" viewBox="0 0 4217.01 411.91"><defs><style>.uuid-515d68a1-6bad-4c18-87d0-36593b6a8eec,.uuid-0b6dc895-08c9-43a6-b934-042547020281{fill:#424242;}.uuid-0b6dc895-08c9-43a6-b934-042547020281,.uuid-37b03c4e-db1e-421a-aaf6-71e7f4b649e0{fill-rule:evenodd;}.uuid-37b03c4e-db1e-421a-aaf6-71e7f4b649e0{fill:#ca9e67;}</style></defs><polygon class="uuid-37b03c4e-db1e-421a-aaf6-71e7f4b649e0" points="494.77 272.81 456.16 272.81 456.16 234.2 494.77 234.2 494.77 272.81 494.77 272.81"/><polygon class="uuid-0b6dc895-08c9-43a6-b934-042547020281" points="1073 369.82 887.24 120.96 977.1 53.89 1162.84 302.76 1073 369.82 1073 369.82"/><path class="uuid-37b03c4e-db1e-421a-aaf6-71e7f4b649e0" d="M917.22,378.09c24.05-15.22,48.52-35.39,69.55-51.96l-132.69-177.81c-7.14,3.61-14.59,6.78-22.42,9.39-39.64,13.28-264.5-113.72-332.43-138.01-16.82-6.03-30.26-18.12-42.16-19.35-51.41-5.33-94.67,51.45-133.52,91.42-67.74,69.7-124.52,159.83-199.83,229.21-5.89,5.38-23.74,16.57-31.87,27.88-6.42,8.95-3.57,16.85,4.71,23,3.27,2.43,6.94,4.63,9.98,6.23H0v28.06H1143.99v-28.06h-226.77Zm-626.68-71.69c28.56-19.4,163.6-146.7,184.68-148.06,14.18-.94,162.77,113.78,206.13,144.88-35.03,6.65-62.83,5.62-102.2,5.7-25.5,.05-72.32-6.86-94.02,8.63-12.28,8.77-23.7,28.96-9.09,45.04,6.62,7.3,15.62,12.18,26.1,15.5H179.36c33.06-13.8,68.18-42.5,111.18-71.69h0Z"/><g><path class="uuid-515d68a1-6bad-4c18-87d0-36593b6a8eec" d="M1616.52,398.1L1583.53,15.63c-.54-6.26-5.78-11.07-12.06-11.07h-106.99c-6.25,0-11.47,4.76-12.05,10.98l-35.82,382.47c-.67,7.1,4.92,13.24,12.05,13.24h43.55c5.69,0,10.61-3.96,11.83-9.51l6.05-27.53c1.22-5.55,6.14-9.51,11.83-9.51h38.29c6.2,0,11.39,4.68,12.04,10.84l2.61,24.87c.65,6.16,5.84,10.84,12.04,10.84h37.56c7.1,0,12.67-6.08,12.06-13.15h0Zm-77.4-81.77h-45.22c-2.19,0-3.88-1.92-3.61-4.09l22.61-179.21c.54-4.24,6.68-4.24,7.22,0l22.61,179.21c.27,2.17-1.42,4.09-3.61,4.09Z"/><path class="uuid-515d68a1-6bad-4c18-87d0-36593b6a8eec" d="M2635.63,398.1l-32.98-382.47c-.54-6.26-5.78-11.07-12.06-11.07h-106.99c-6.25,0-11.47,4.76-12.05,10.98l-35.82,382.47c-.67,7.1,4.92,13.24,12.05,13.24h43.55c5.69,0,10.61-3.96,11.83-9.51l6.05-27.53c1.22-5.55,6.14-9.51,11.83-9.51h38.29c6.2,0,11.39,4.68,12.04,10.84l2.61,24.87c.65,6.16,5.84,10.84,12.04,10.84h37.56c7.1,0,12.67-6.08,12.06-13.15h-.01Zm-77.4-81.77h-45.22c-2.19,0-3.88-1.92-3.61-4.09l22.61-179.21c.54-4.24,6.68-4.24,7.22,0l22.61,179.21c.27,2.17-1.42,4.09-3.61,4.09Z"/><path class="uuid-515d68a1-6bad-4c18-87d0-36593b6a8eec" d="M3446.23,398.1l-32.98-382.47c-.54-6.26-5.78-11.07-12.06-11.07h-106.99c-6.25,0-11.47,4.76-12.05,10.98l-35.82,382.47c-.67,7.1,4.92,13.24,12.05,13.24h43.55c5.69,0,10.61-3.96,11.83-9.51l6.05-27.53c1.22-5.55,6.14-9.51,11.83-9.51h38.29c6.2,0,11.39,4.68,12.04,10.84l2.61,24.87c.65,6.16,5.84,10.84,12.04,10.84h37.56c7.1,0,12.67-6.08,12.06-13.15h-.01Zm-77.4-81.77h-45.22c-2.19,0-3.88-1.92-3.61-4.09l22.61-179.21c.54-4.24,6.68-4.24,7.22,0l22.61,179.21c.27,2.17-1.42,4.09-3.61,4.09Z"/><path class="uuid-515d68a1-6bad-4c18-87d0-36593b6a8eec" d="M1750.92,4.86c-2.53,0-4.49,2.09-4.48,4.61V345.08c0,9.87-7.68,18.3-17.55,18.63-10.32,.34-18.79-7.92-18.79-18.16V9.47c0-2.53-1.96-4.61-4.48-4.61h-60.9c-2.5,0-4.53,2.03-4.53,4.53V341.4c0,38.58,31.27,69.85,69.85,69.85h37.48c38.58,0,69.85-31.27,69.85-69.85V9.39c0-2.5-2.03-4.53-4.53-4.53h-61.92Z"/><path class="uuid-515d68a1-6bad-4c18-87d0-36593b6a8eec" d="M2979.28,4.86c-2.53,0-4.49,2.09-4.48,4.61V345.08c0,9.87-7.68,18.3-17.55,18.63-10.32,.34-18.79-7.92-18.79-18.16V9.47c0-2.53-1.96-4.61-4.48-4.61h-60.9c-2.5,0-4.53,2.03-4.53,4.53V341.4c0,38.58,31.27,69.85,69.85,69.85h37.48c38.58,0,69.85-31.27,69.85-69.85V9.39c0-2.5-2.03-4.53-4.53-4.53h-61.92Z"/><path class="uuid-515d68a1-6bad-4c18-87d0-36593b6a8eec" d="M3936.03,4.86c-2.53,0-4.49,2.09-4.48,4.61V345.08c0,9.87-7.68,18.3-17.55,18.63-10.32,.34-18.79-7.92-18.79-18.16V9.47c0-2.53-1.96-4.61-4.48-4.61h-60.9c-2.5,0-4.53,2.03-4.53,4.53V341.4c0,38.58,31.27,69.85,69.85,69.85h37.48c38.58,0,69.85-31.27,69.85-69.85V9.39c0-2.5-2.03-4.53-4.53-4.53h-61.92Z"/><path class="uuid-515d68a1-6bad-4c18-87d0-36593b6a8eec" d="M1875.04,411.25h65.28c5.39,0,9.71-4.44,9.58-9.82l-4.73-190.26c-.13-5.1,3.77-9.41,8.86-9.79l47.17-3.53c5-.37,8.87-4.54,8.87-9.56v-18.78c0-5.29-4.29-9.58-9.58-9.58h-45.96c-5.29,0-9.58-4.29-9.58-9.58V63.23c0-5.29,4.29-9.58,9.58-9.58h61.71c5.29,0,9.58-4.29,9.58-9.58V14.44c0-5.29-4.29-9.58-9.58-9.58h-141.19c-5.29,0-9.58,4.29-9.58,9.58V401.67c0,5.29,4.29,9.58,9.58,9.58h-.01Z"/><path class="uuid-515d68a1-6bad-4c18-87d0-36593b6a8eec" d="M3089.41,411.25h65.12c5.37,0,9.69-4.43,9.56-9.8l-4.72-189.82c-.13-5.09,3.76-9.39,8.84-9.77l47.06-3.52c4.99-.37,8.85-4.53,8.85-9.53v-18.74c0-5.28-4.28-9.56-9.56-9.56h-45.85c-5.28,0-9.56-4.28-9.56-9.56V64.05c0-5.28,4.28-9.56,9.56-9.56h61.57c5.28,0,9.56-4.28,9.56-9.56V15.37c0-5.28-4.28-9.56-9.56-9.56h-140.86c-5.28,0-9.56,4.28-9.56,9.56V401.69c0,5.28,4.28,9.56,9.56,9.56h-.01Z"/><rect class="uuid-515d68a1-6bad-4c18-87d0-36593b6a8eec" x="2047.9" y="8.81" width="61.64" height="402.44" rx="10.29" ry="10.29"/><path class="uuid-515d68a1-6bad-4c18-87d0-36593b6a8eec" d="M2163.67,407.06V10c0-2.31,1.88-4.19,4.19-4.19h62.1c1.95,0,3.64,1.34,4.08,3.24l52.72,225.72c.99,4.25,7.01,4.34,8.13,.12l59.62-225.56c.49-1.84,2.15-3.12,4.05-3.12h55.5c2.31,0,4.19,1.88,4.19,4.19V407.06c0,2.31-1.88,4.19-4.19,4.19h-54.55c-2.31,0-4.18-1.86-4.19-4.17l-.83-184.05c-.02-4.78-6.75-5.8-8.19-1.23l-51.26,163.43c-1.23,3.94-6.82,3.91-8.01-.05l-47.86-158.94c-1.39-4.62-8.2-3.62-8.2,1.21v179.61c0,2.31-1.88,4.19-4.19,4.19h-58.91c-2.31,0-4.19-1.88-4.19-4.19h-.01Z"/><path class="uuid-515d68a1-6bad-4c18-87d0-36593b6a8eec" d="M2662.09,407.68V9.37c0-1.97,1.6-3.57,3.57-3.57h52.72c1.57,0,2.96,1.03,3.41,2.54l48.64,161.15c1.19,3.93,6.98,3.07,6.98-1.03V9.37c0-1.97,1.6-3.57,3.57-3.57h54.49c1.97,0,3.57,1.6,3.57,3.57V407.68c0,1.97-1.6,3.57-3.57,3.57h-51.77c-1.65,0-3.09-1.13-3.47-2.74l-41.16-173.3c-.98-4.12-7.04-3.41-7.04,.82v171.65c0,1.97-1.6,3.57-3.57,3.57h-62.81c-1.97,0-3.57-1.6-3.57-3.57h.01Z"/><path class="uuid-515d68a1-6bad-4c18-87d0-36593b6a8eec" d="M3468.2,10.92l7.27,397.57c.03,1.53,1.28,2.76,2.81,2.76h56.84c1.55,0,2.81-1.26,2.81-2.81V232.64c0-3.27,4.63-3.9,5.51-.75l49.46,177.31c.34,1.21,1.44,2.05,2.7,2.05h55.51c1.81,0,3.15-1.68,2.73-3.45l-56.5-242.39c-.11-.48-.1-.98,.05-1.44l45.7-152.3c.54-1.8-.81-3.61-2.69-3.61h-63c-1.25,0-2.35,.83-2.7,2.03l-32.43,113.22c-.9,3.13-5.51,2.48-5.51-.77V10.87c0-1.55-1.26-2.81-2.81-2.81h-62.94c-1.57,0-2.84,1.29-2.81,2.86h0Z"/><path class="uuid-515d68a1-6bad-4c18-87d0-36593b6a8eec" d="M3663.81,4.86h137.78c5.96,0,10.8,4.84,10.8,10.8V50.08c0,5.96-4.84,10.8-10.8,10.8h-28.09c-5.92,0-10.74,4.77-10.8,10.69l-3.28,329.65c-.06,5.92-4.88,10.69-10.8,10.69h-57.56c-6.15,0-11.06-5.13-10.79-11.28l14.78-330.13c.28-6.15-4.64-11.28-10.79-11.28h-21.72c-6.13,0-11.03-5.09-10.79-11.22l1.27-32.76c.22-5.8,4.99-10.38,10.79-10.38h0Z"/><path class="uuid-515d68a1-6bad-4c18-87d0-36593b6a8eec" d="M1386.88,232.7c.18-16.2-13.78-34.46-25.24-45.91l-4.81-4.81s11.46-3.77,18.24-21.4,1.87-89.15,1.87-89.15c0-37.05-42.23-66.83-79.28-65.91l-88.56,2.75c-3.75,.09-6.71,3.2-6.63,6.95l8.41,388.74c.08,3.75,3.17,6.73,6.92,6.65,20.3-.39,81.07-3.04,123.98-4.98,25.33-1.15,45.24-22.07,45.12-47.43-.19-39.14-.37-94.18-.03-125.49h.01Zm-110.01-191.4h29.79c3.7,0,6.74,2.91,6.89,6.6l4.36,100.88c.16,3.8-2.78,7.02-6.57,7.19l-31.28,1.45c-3.86,.18-7.11-2.84-7.22-6.7l-2.86-102.33c-.11-3.89,3.01-7.09,6.9-7.09h-.01Zm38.34,335.5l-23.03,1.18c-10.03,.52-18.49-8.19-18.77-19.32l-3.24-128.36c-.28-11.2,7.83-20.45,17.94-20.45h21.32c9.61,0,17.51,8.39,17.93,19.04l4.96,127.18c.43,10.95-7.22,20.22-17.1,20.73h0Z"/><path class="uuid-515d68a1-6bad-4c18-87d0-36593b6a8eec" d="M4216.91,400.67l-32.24-212.43c-.21-1.4-.09-2.84,.36-4.18,0,0,29.92,10.55,29.92-91.78s-58.73-83.67-58.73-83.67c-1.68-2.34-4.38-3.73-7.26-3.73h-102.51c-4.93,0-8.93,4-8.93,8.93V402.01c0,4.93,4,8.93,8.93,8.93h41.16c4.93,0,8.93-4,8.93-8.93V218.34c0-4.93,4-8.93,8.93-8.93h15.49c4.42,0,8.17,3.23,8.83,7.6l27.98,186.32c.66,4.37,4.41,7.6,8.83,7.6h41.49c5.46,0,9.64-4.86,8.82-10.26h0Zm-66.65-263.63c0,14.9-12.08,26.99-26.99,26.99h0c-14.9,0-26.99-12.08-26.99-26.99V72.24c0-14.9,12.08-26.99,26.99-26.99h0c14.9,0,26.99,12.08,26.99,26.99v64.8Z"/></g></svg>